<?xml version="1.0" standalone="no"?>
<!DOCTYPE svg PUBLIC "-//W3C//DTD SVG 20010904//EN"
 "http://www.w3.org/TR/2001/REC-SVG-20010904/DTD/svg10.dtd">
<svg version="1.0" xmlns="http://www.w3.org/2000/svg"
 width="443.000000pt" height="443.000000pt" viewBox="0 0 443.000000 443.000000"
 preserveAspectRatio="xMidYMid meet">
<metadata>
Created by potrace 1.14, written by Peter Selinger 2001-2017
</metadata>
<g transform="translate(0.000000,443.000000) scale(0.100000,-0.100000)"
fill="#000000" stroke="none">
<path d="M1142 4128 c-9 -3 -228 -218 -486 -476 l-468 -470 0 -281 c0 -260 1
-282 19 -304 23 -30 23 -73 -2 -91 -16 -12 -18 -30 -17 -196 1 -168 2 -184 20
-201 17 -15 19 -25 12 -54 -4 -19 -14 -42 -20 -50 -10 -12 -12 -180 -12 -722
1 -390 1 -726 1 -748 1 -38 35 -95 57 -95 19 0 86 -22 81 -26 -10 -10 15 -79
35 -98 17 -16 66 -28 106 -27 18 1 -77 1 1787 0 1896 -2 1773 -5 1835 53 54
49 56 67 55 527 l0 424 33 25 c65 49 71 76 71 297 0 210 -4 232 -53 281 -19
19 -65 40 -75 35 -3 -1 -12 15 -20 36 -20 49 -47 78 -93 101 -31 14 -65 17
-212 17 -173 -1 -176 0 -176 21 0 66 -74 174 -120 174 -10 0 -23 13 -31 31
-19 46 -56 87 -100 110 -30 15 -61 20 -138 21 -63 0 -101 5 -104 12 -2 6 -4
37 -3 69 1 31 -2 57 -7 57 -4 0 -5 6 -1 12 10 16 10 101 0 116 -4 7 -4 12 1
12 4 0 8 27 8 60 0 33 -3 60 -8 60 -4 0 -5 5 -1 11 9 15 11 230 1 236 -4 2 -4
9 -1 15 10 15 11 139 1 145 -4 2 -4 9 0 15 9 15 8 71 -1 86 -4 7 -4 12 1 12 4
0 8 27 8 60 0 33 -4 60 -8 60 -5 0 -5 5 -1 11 10 17 11 172 1 187 -5 6 -6 12
-1 12 11 0 11 181 0 198 -4 7 -2 12 5 12 8 0 8 4 -1 15 -7 8 -9 15 -6 15 4 0
-3 11 -16 24 -28 30 -75 50 -84 35 -11 -19 -34 13 -34 48 0 43 -45 92 -87 94
-128 5 -1738 2 -1751 -3z"/>
</g>
</svg>
