<?xml version="1.0" standalone="no"?>
<!DOCTYPE svg PUBLIC "-//W3C//DTD SVG 20010904//EN"
 "http://www.w3.org/TR/2001/REC-SVG-20010904/DTD/svg10.dtd">
<svg version="1.0" xmlns="http://www.w3.org/2000/svg"
 width="96.000000pt" height="96.000000pt" viewBox="0 0 96.000000 96.000000"
 preserveAspectRatio="xMidYMid meet">
<metadata>
Created by potrace 1.14, written by Peter Selinger 2001-2017
</metadata>
<g transform="translate(0.000000,96.000000) scale(0.100000,-0.100000)"
fill="#000000" stroke="none">
<path d="M430 850 c-11 -11 -20 -24 -20 -30 0 -6 -38 -10 -94 -10 -71 0 -98
-4 -110 -15 -8 -8 -21 -15 -29 -15 -8 0 -21 -8 -29 -17 -13 -15 -15 -64 -14
-321 1 -317 2 -321 44 -322 7 0 20 -7 28 -15 13 -13 57 -15 274 -15 217 0 261
2 274 15 8 8 21 15 29 15 8 0 21 8 29 18 13 14 15 62 14 320 -1 317 -2 321
-44 322 -7 0 -20 7 -28 15 -12 11 -39 15 -110 15 -75 0 -94 3 -94 14 0 21 -40
46 -72 46 -16 0 -37 -9 -48 -20z m79 -29 c12 -12 17 -27 14 -45 -5 -23 -10
-26 -44 -26 -30 0 -39 4 -40 18 -5 65 31 92 70 53z m-108 -58 c1 -10 1 -24 0
-30 -1 -10 20 -13 78 -13 l81 0 -4 30 -3 30 88 0 c64 0 89 -4 90 -12 1 -18 1
-587 0 -620 l-1 -28 -250 0 -250 0 -1 23 c-1 29 -1 597 0 620 1 15 12 17 86
17 74 0 85 -2 86 -17z m-207 -310 c0 -217 -4 -298 -12 -301 -14 -4 -14 -18
-16 303 -2 275 0 295 18 295 8 0 11 -82 10 -297z m600 3 c1 -271 -2 -321 -20
-303 -8 8 -13 562 -6 585 3 7 9 11 15 9 7 -2 11 -99 11 -291z"/>
<path d="M343 655 c-23 -19 -27 -31 -27 -77 -1 -30 -7 -62 -13 -70 -7 -8 -15
-31 -18 -51 l-6 -37 111 0 111 0 -7 38 c-4 20 -13 46 -19 57 -7 11 -12 40 -10
64 4 80 -66 125 -122 76z m83 -37 c10 -30 5 -71 -10 -80 -24 -16 -56 -8 -66
16 -10 27 -3 67 14 78 23 16 55 8 62 -14z m-45 -123 c12 -2 30 0 40 5 14 8 21
6 29 -9 19 -36 12 -41 -60 -41 -43 0 -70 4 -70 11 0 19 21 50 30 44 6 -4 20
-8 31 -10z"/>
<path d="M563 672 c-26 -17 5 -29 72 -28 54 1 70 4 70 16 0 10 -16 15 -65 17
-36 1 -70 -1 -77 -5z"/>
<path d="M554 609 c-11 -19 8 -25 78 -25 58 1 73 4 73 16 0 12 -15 15 -73 16
-40 1 -75 -2 -78 -7z"/>
<path d="M554 548 c-11 -18 9 -26 63 -24 35 1 58 6 61 14 4 14 3 14 -66 17
-29 1 -55 -2 -58 -7z"/>
<path d="M553 487 c-9 -14 18 -26 55 -25 33 1 50 13 37 26 -10 10 -85 10 -92
-1z"/>
<path d="M287 353 c-17 -16 -3 -23 48 -23 42 0 55 3 55 15 0 11 -12 15 -48 15
-27 0 -52 -3 -55 -7z"/>
<path d="M420 345 c0 -12 14 -15 70 -15 56 0 70 3 70 15 0 12 -14 15 -70 15
-56 0 -70 -3 -70 -15z"/>
<path d="M586 348 c-3 -7 -4 -40 -3 -73 l2 -60 60 0 60 0 0 70 0 70 -58 3
c-40 2 -58 -1 -61 -10z"/>
<path d="M282 288 c3 -8 26 -14 56 -16 42 -2 52 0 52 12 0 13 -12 16 -56 16
-40 0 -55 -4 -52 -12z"/>
<path d="M420 285 c0 -12 14 -15 70 -15 56 0 70 3 70 15 0 12 -14 15 -70 15
-56 0 -70 -3 -70 -15z"/>
<path d="M283 225 c0 -11 13 -15 54 -15 40 0 53 4 53 15 0 11 -13 15 -53 15
-41 0 -54 -4 -54 -15z"/>
<path d="M420 225 c0 -12 14 -15 70 -15 56 0 70 3 70 15 0 12 -14 15 -70 15
-56 0 -70 -3 -70 -15z"/>
</g>
</svg>
